<svg xmlns="http://www.w3.org/2000/svg" x="0px" y="0px"
     width="512" height="512"
     viewBox="0 0 172 172"
     style=" fill:#000000;">
    <g fill="none" fill-rule="nonzero" stroke="none" stroke-width="1" stroke-linecap="butt" stroke-linejoin="miter"
       stroke-miterlimit="10" stroke-dasharray="" stroke-dashoffset="0" font-family="none" font-weight="none"
       font-size="none" text-anchor="none" style="mix-blend-mode: normal">
        <path d="M0,172v-172h172v172z" fill="none"></path>
        <g fill="#3498db">
            <path d="M88.36534,5.41043c-14.89809,-0.43995 -29.6268,3.25625 -42.55187,10.67848c-11.83009,6.82589 -21.74563,16.52771 -28.82764,28.20628l4.59749,2.78461c6.61154,-10.90306 15.86856,-19.96058 26.91306,-26.33304c27.96717,-16.10477 63.09392,-12.55661 87.27551,8.81574h-14.8344v5.375h24.1875v-24.1875h-5.375v15.15524c-14.177,-12.67487 -32.37612,-19.93361 -51.38466,-20.49481zM82.84403,16.19652c-11.73339,0.53143 -23.14427,4.00766 -33.18105,10.10831l2.79904,4.58896c18.80898,-11.429 42.14245,-12.4962 61.91617,-2.83185l2.36797,-4.82516c-10.53253,-5.14964 -22.19009,-7.5705 -33.90213,-7.04025zM44.07342,30.09593c-2.30056,1.72893 -4.49307,3.59715 -6.56522,5.59415l3.73074,3.86985c1.91362,-1.84395 3.93828,-3.56907 6.06262,-5.1657zM104.8125,40.3125c-10.44839,-0.00431 -20.58187,3.57679 -28.70757,10.14505c-7.43879,-4.88084 -16.14536,-7.47362 -25.04243,-7.45755c-25.19219,0 -45.6875,20.4953 -45.6875,45.6875c0,25.1922 20.49531,45.6875 45.6875,45.6875c10.45165,0.00972 20.58757,-3.58155 28.70166,-10.16933c7.43637,4.89358 16.14629,7.4952 25.04834,7.48183h16.125c25.1922,0 45.6875,-20.49531 45.6875,-45.6875c0,-25.1922 -20.49531,-45.6875 -45.6875,-45.6875zM102.98584,45.72949c17.26467,-0.78325 33.10779,9.5256 39.38556,25.62752c6.27777,16.10192 1.59329,34.41401 -11.64548,45.52334c-13.23877,11.10933 -32.08602,12.54393 -46.85374,3.56636c11.06625,-11.42228 15.39848,-27.77629 11.43828,-43.17912l-5.20572,1.33981c5.17107,19.97706 -5.56682,40.63591 -24.88803,47.88257c-19.32121,7.24666 -40.99623,-1.25533 -50.23784,-19.70569c-9.2416,-18.45036 -3.07013,-40.90038 14.30409,-52.0341c17.37422,-11.13372 40.34943,-7.36143 53.25137,8.74332l4.19397,-3.362c-1.84663,-2.30439 -3.90997,-4.42639 -6.1617,-6.33688c6.48978,-4.88583 14.30425,-7.69701 22.41924,-8.06512zM127.17006,46.16976c10.37078,1.63352 19.69649,7.2449 25.9971,15.64274h-9.61227c-4.07322,-6.49776 -9.70539,-11.87484 -16.38483,-15.64274zM94.0625,60.69971l-34.9375,34.93684l-13.4375,-13.43684l-23.40015,23.40015l3.80029,3.80029l19.59985,-19.5992l13.4375,13.43684l34.9375,-34.93684l18.8125,18.81184l13.4375,-13.4375v6.94971h5.375v-16.125h-16.125v5.375h6.94905l-9.63655,9.63655zM146.44513,67.1875h10.13652c2.64678,4.99163 4.20649,10.48719 4.57649,16.125h-10.7395c-0.32079,-5.57374 -1.66787,-11.04036 -3.97351,-16.125zM150.41864,88.6875h10.7395c-0.37,5.63781 -1.92971,11.13337 -4.57649,16.125h-10.13652c2.30564,-5.08464 3.65272,-10.55126 3.97351,-16.125zM143.55489,110.1875h9.61227c-6.30061,8.39784 -15.62633,14.00923 -25.9971,15.64274c6.67944,-3.76791 12.3116,-9.14499 16.38483,-15.64274zM146.97331,130.11017c-6.8752,9.46799 -15.84564,17.21888 -26.211,22.64757c-26.25203,13.64876 -58.06359,10.66281 -81.31722,-7.63274h14.3049v-5.375h-24.1875v24.1875h5.375v-15.5417c24.96708,20.41971 59.69612,24.00886 88.31154,9.12674c11.10268,-5.81457 20.71129,-14.1165 28.07571,-24.25771zM127.92067,135.02063c-1.84989,1.58286 -3.78721,3.0606 -5.8028,4.42624l3.01425,4.45051c2.18292,-1.47894 4.28102,-3.07935 6.28439,-4.79367zM116.65954,142.76163c-17.45933,9.409 -38.27133,10.28358 -56.4585,2.37256l-2.1521,4.92555c19.70452,8.57393 42.2547,7.626 61.17015,-2.57136z"></path>
        </g>
    </g>
</svg>
